<mxfile host="app.diagrams.net" modified="2023-07-26T11:02:38.531Z" agent="Mozilla/5.0 (Macintosh; Intel Mac OS X 10_15_7) AppleWebKit/537.36 (KHTML, like Gecko) Chrome/114.0.0.0 Safari/537.36" etag="BH6Xbc-7ElRvl5eh9d_H" version="21.6.5" type="device">
  <diagram name="Page-1" id="IXPXRV0eT7QVRwYvpylU">
    <mxGraphModel dx="1454" dy="892" grid="1" gridSize="10" guides="1" tooltips="1" connect="1" arrows="1" fold="1" page="1" pageScale="1" pageWidth="827" pageHeight="1169" math="0" shadow="0">
      <root>
        <mxCell id="0" />
        <mxCell id="1" parent="0" />
        <mxCell id="TyL7xBJY_rJSiMh8Nkty-3" value="" style="edgeStyle=orthogonalEdgeStyle;rounded=0;orthogonalLoop=1;jettySize=auto;html=1;fillColor=#d5e8d4;strokeColor=#82b366;" parent="1" source="TyL7xBJY_rJSiMh8Nkty-1" target="TyL7xBJY_rJSiMh8Nkty-2" edge="1">
          <mxGeometry relative="1" as="geometry" />
        </mxCell>
        <mxCell id="TyL7xBJY_rJSiMh8Nkty-1" value="Input params (4)&lt;br&gt;Same as number of Qubits" style="rounded=0;whiteSpace=wrap;html=1;fillColor=#d5e8d4;strokeColor=#82b366;" parent="1" vertex="1">
          <mxGeometry x="320" y="80" width="160" height="60" as="geometry" />
        </mxCell>
        <mxCell id="TyL7xBJY_rJSiMh8Nkty-5" value="" style="edgeStyle=orthogonalEdgeStyle;rounded=0;orthogonalLoop=1;jettySize=auto;html=1;fillColor=#d5e8d4;strokeColor=#82b366;" parent="1" source="TyL7xBJY_rJSiMh8Nkty-2" target="TyL7xBJY_rJSiMh8Nkty-4" edge="1">
          <mxGeometry relative="1" as="geometry" />
        </mxCell>
        <mxCell id="TyL7xBJY_rJSiMh8Nkty-2" value="Initialise PQC&amp;nbsp;" style="rounded=0;whiteSpace=wrap;html=1;fillColor=#d5e8d4;strokeColor=#82b366;" parent="1" vertex="1">
          <mxGeometry x="320" y="180" width="160" height="60" as="geometry" />
        </mxCell>
        <mxCell id="TyL7xBJY_rJSiMh8Nkty-13" value="" style="edgeStyle=orthogonalEdgeStyle;rounded=0;orthogonalLoop=1;jettySize=auto;html=1;" parent="1" source="TyL7xBJY_rJSiMh8Nkty-4" target="TyL7xBJY_rJSiMh8Nkty-12" edge="1">
          <mxGeometry relative="1" as="geometry" />
        </mxCell>
        <mxCell id="TyL7xBJY_rJSiMh8Nkty-4" value="Transpile circuit and store" style="rounded=0;whiteSpace=wrap;html=1;fillColor=#d5e8d4;strokeColor=#82b366;" parent="1" vertex="1">
          <mxGeometry x="320" y="280" width="160" height="60" as="geometry" />
        </mxCell>
        <mxCell id="TyL7xBJY_rJSiMh8Nkty-9" value="" style="edgeStyle=orthogonalEdgeStyle;rounded=0;orthogonalLoop=1;jettySize=auto;html=1;" parent="1" source="TyL7xBJY_rJSiMh8Nkty-6" target="TyL7xBJY_rJSiMh8Nkty-8" edge="1">
          <mxGeometry relative="1" as="geometry" />
        </mxCell>
        <mxCell id="TyL7xBJY_rJSiMh8Nkty-6" value="Train data ( training, val )" style="rounded=0;whiteSpace=wrap;html=1;" parent="1" vertex="1">
          <mxGeometry x="600" y="310" width="160" height="60" as="geometry" />
        </mxCell>
        <mxCell id="TyL7xBJY_rJSiMh8Nkty-14" style="edgeStyle=orthogonalEdgeStyle;rounded=0;orthogonalLoop=1;jettySize=auto;html=1;entryX=1;entryY=0.5;entryDx=0;entryDy=0;fillColor=#ffe6cc;strokeColor=#d79b00;" parent="1" source="TyL7xBJY_rJSiMh8Nkty-8" target="TyL7xBJY_rJSiMh8Nkty-12" edge="1">
          <mxGeometry relative="1" as="geometry" />
        </mxCell>
        <mxCell id="TyL7xBJY_rJSiMh8Nkty-15" value="Params (theta*)" style="edgeLabel;html=1;align=center;verticalAlign=middle;resizable=0;points=[];" parent="TyL7xBJY_rJSiMh8Nkty-14" vertex="1" connectable="0">
          <mxGeometry x="0.0389" y="-1" relative="1" as="geometry">
            <mxPoint as="offset" />
          </mxGeometry>
        </mxCell>
        <mxCell id="TyL7xBJY_rJSiMh8Nkty-19" value="" style="edgeStyle=orthogonalEdgeStyle;rounded=0;orthogonalLoop=1;jettySize=auto;html=1;" parent="1" source="TyL7xBJY_rJSiMh8Nkty-8" target="TyL7xBJY_rJSiMh8Nkty-18" edge="1">
          <mxGeometry relative="1" as="geometry" />
        </mxCell>
        <mxCell id="TyL7xBJY_rJSiMh8Nkty-8" value="QuantumLayer" style="rounded=0;whiteSpace=wrap;html=1;fillColor=#ffe6cc;strokeColor=#d79b00;" parent="1" vertex="1">
          <mxGeometry x="600" y="420" width="160" height="60" as="geometry" />
        </mxCell>
        <mxCell id="TyL7xBJY_rJSiMh8Nkty-16" style="edgeStyle=orthogonalEdgeStyle;rounded=0;orthogonalLoop=1;jettySize=auto;html=1;entryX=0.25;entryY=1;entryDx=0;entryDy=0;exitX=1;exitY=1;exitDx=0;exitDy=0;fillColor=#ffe6cc;strokeColor=#d79b00;" parent="1" source="TyL7xBJY_rJSiMh8Nkty-12" target="TyL7xBJY_rJSiMh8Nkty-8" edge="1">
          <mxGeometry relative="1" as="geometry">
            <Array as="points">
              <mxPoint x="428" y="500" />
              <mxPoint x="640" y="500" />
            </Array>
          </mxGeometry>
        </mxCell>
        <mxCell id="TyL7xBJY_rJSiMh8Nkty-17" value="Counts / nshots (2**no_qubits)" style="edgeLabel;html=1;align=center;verticalAlign=middle;resizable=0;points=[];" parent="TyL7xBJY_rJSiMh8Nkty-16" vertex="1" connectable="0">
          <mxGeometry x="-0.0978" y="3" relative="1" as="geometry">
            <mxPoint x="18" as="offset" />
          </mxGeometry>
        </mxCell>
        <mxCell id="TyL7xBJY_rJSiMh8Nkty-12" value="Run" style="ellipse;whiteSpace=wrap;html=1;rounded=0;fillColor=#f8cecc;strokeColor=#b85450;" parent="1" vertex="1">
          <mxGeometry x="360" y="410" width="80" height="80" as="geometry" />
        </mxCell>
        <mxCell id="TyL7xBJY_rJSiMh8Nkty-20" style="edgeStyle=orthogonalEdgeStyle;rounded=0;orthogonalLoop=1;jettySize=auto;html=1;entryX=0.5;entryY=1;entryDx=0;entryDy=0;exitX=-0.025;exitY=0.301;exitDx=0;exitDy=0;exitPerimeter=0;fillColor=#dae8fc;strokeColor=#6c8ebf;" parent="1" source="TyL7xBJY_rJSiMh8Nkty-18" target="TyL7xBJY_rJSiMh8Nkty-12" edge="1">
          <mxGeometry relative="1" as="geometry" />
        </mxCell>
        <mxCell id="TyL7xBJY_rJSiMh8Nkty-21" value="Params(theta* +- s )" style="edgeLabel;html=1;align=center;verticalAlign=middle;resizable=0;points=[];" parent="TyL7xBJY_rJSiMh8Nkty-20" vertex="1" connectable="0">
          <mxGeometry x="-0.3146" y="-1" relative="1" as="geometry">
            <mxPoint as="offset" />
          </mxGeometry>
        </mxCell>
        <mxCell id="TyL7xBJY_rJSiMh8Nkty-18" value="Backpropagation" style="rounded=0;whiteSpace=wrap;html=1;fillColor=#dae8fc;strokeColor=#6c8ebf;" parent="1" vertex="1">
          <mxGeometry x="600" y="560" width="160" height="60" as="geometry" />
        </mxCell>
        <mxCell id="TyL7xBJY_rJSiMh8Nkty-22" style="edgeStyle=orthogonalEdgeStyle;rounded=0;orthogonalLoop=1;jettySize=auto;html=1;entryX=0.005;entryY=0.836;entryDx=0;entryDy=0;entryPerimeter=0;fillColor=#dae8fc;strokeColor=#6c8ebf;exitX=0.253;exitY=0.944;exitDx=0;exitDy=0;exitPerimeter=0;" parent="1" source="TyL7xBJY_rJSiMh8Nkty-12" target="TyL7xBJY_rJSiMh8Nkty-18" edge="1">
          <mxGeometry relative="1" as="geometry">
            <mxPoint x="384" y="490" as="sourcePoint" />
            <mxPoint x="590" y="520" as="targetPoint" />
            <Array as="points">
              <mxPoint x="380" y="490" />
              <mxPoint x="380" y="490" />
              <mxPoint x="380" y="610" />
            </Array>
          </mxGeometry>
        </mxCell>
        <mxCell id="TyL7xBJY_rJSiMh8Nkty-23" value="Counts / nshots (2**no_qubits)" style="edgeLabel;html=1;align=center;verticalAlign=middle;resizable=0;points=[];" parent="TyL7xBJY_rJSiMh8Nkty-22" vertex="1" connectable="0">
          <mxGeometry x="-0.0978" y="3" relative="1" as="geometry">
            <mxPoint x="81" as="offset" />
          </mxGeometry>
        </mxCell>
      </root>
    </mxGraphModel>
  </diagram>
</mxfile>
